<svg width="81px" height="42px" viewBox="0 0 81 42" version="1.1" xmlns="http://www.w3.org/2000/svg" xmlns:xlink="http://www.w3.org/1999/xlink"><g id="Symbols" class="logo-colors--1"><g id="NavBar/Black" class="logo-colors--2"><g id="Gloo_Black"><polyline id="Path" points="30.5409836 0 26.557377 0 26.557377 31.3333333 30.5409836 31.3333333 30.5409836 0"></polyline> <path d="M44.8758469,28.111065 C40.9069209,28.111065 38.0865953,24.9140544 38.0865953,20.9406269 C38.0865953,17.0905128 40.9069209,13.9026365 44.8758469,13.9026365 C48.7424223,13.9026365 51.5309055,17.0996471 51.5309055,20.9406269 C51.5309055,24.9254723 48.7537946,28.111065 44.8758469,28.111065 M44.8758469,10.0068507 C38.5710544,10 33.8606557,14.914262 33.8606557,20.9337762 C33.8606557,27.04235 38.5778778,32 44.8826702,32 C51.0987589,32 55.7704918,27.04235 55.7704918,20.9337762 C55.7704918,14.914262 51.0987589,10 44.8826702,10" id="Shape"></path> <path d="M70.1121784,28.1042142 C66.1432524,28.1042142 63.3229268,24.9072037 63.3229268,20.9337762 C63.3229268,17.083662 66.1432524,13.8957858 70.1121784,13.8957858 C73.9924006,13.8957858 76.7695116,17.0927963 76.7695116,20.9337762 C76.7695116,24.9186215 73.9924006,28.1042142 70.1121784,28.1042142 M70.1121784,10 C63.807386,10 59.0901639,14.914262 59.0901639,20.9337762 C59.0901639,27.04235 63.807386,32 70.1121784,32 C76.3282671,32 81,27.04235 81,20.9337762 C81,14.914262 76.3282671,10 70.1121784,10" id="Shape"></path> <path d="M0,20.9887349 C0,27.1295368 4.72569555,32.1123458 11.040281,32.1123458 C13.4573586,32.1269243 15.8095862,31.3252525 17.7213583,29.835342 L17.7213583,31.3625168 C17.7213583,36.2857064 15.322089,38.0444797 10.9583326,38.0444797 L11.0015831,42 C16.412459,42 21.9098361,40.1105225 21.9098361,30.3948475 L21.9098361,10.1815656 L17.9125714,10.1815656 L17.7213583,12.2567806 C15.8043601,10.779115 13.4540851,9.98536857 11.040281,10.0002042 C4.72569555,10.0002042 0,14.9396552 0,20.9887349 M11.040281,28.1889283 C7.06577986,28.1889283 4.24083372,24.978651 4.24083372,20.9818558 C4.24083372,17.1203508 7.05667447,13.9169526 11.040281,13.9169526 C14.928281,13.9169526 17.7099766,17.1272299 17.7099766,20.9887349 C17.7099766,24.9947024 14.928281,28.1889283 11.040281,28.1889283 Z" id="Shape"></path></g></g></g></svg>