<?xml version="1.0" encoding="utf-8"?>
<!-- Generator: Adobe Illustrator 24.0.1, SVG Export Plug-In . SVG Version: 6.00 Build 0)  -->
<svg version="1.1" id="Layer_1" xmlns="http://www.w3.org/2000/svg" xmlns:xlink="http://www.w3.org/1999/xlink" x="0px" y="0px"
	 viewBox="0 0 250 60" style="enable-background:new 0 0 250 60;" xml:space="preserve">
<style type="text/css">
	.st0{fill:#272727;}
	.st1{fill:#EF3B24;}
	.st2{fill:#800000;}
	.st3{fill:#FFFFFF;}
</style>
<rect x="76.9" y="31.5" class="st0" width="172.1" height="26.1"/>
<g>
	<path d="M58.8,31.1C62.6,16.6,39,18.6,39,18.6h3.8c0,0,4.6-0.4,3.2,3c-0.1,0.4-0.3,0.7-0.5,1C57.5,23.1,58.9,28.2,58.8,31.1z"/>
	<path class="st0" d="M45.6,22.5c-1,1.6-2.8,1.4-2.8,1.4H17.9L9.1,58.2h16.3l4.7-18c0,0,17,0.9,22.9-3c2.5-1.6,4.3-3.4,5.7-5.7
		c0-0.1,0.1-0.3,0.1-0.4C58.9,28.2,57.5,23.1,45.6,22.5z"/>
	<path class="st1" d="M58.7,31.5c0-0.1,0.1-0.1,0.1-0.2c0-0.1,0-0.2,0-0.3C58.8,31.3,58.7,31.4,58.7,31.5z"/>
	<path class="st2" d="M46.2,2.2c-9.7-0.1-43.8,0-43.8,0s-2.9,16.4,13.7,16.4H39c0,0,23.6-1.9,19.8,12.5c0,0.1,0,0.2,0,0.3
		c1.9-3.2,3.2-7.4,4.4-13.7C65.5,6.6,56,2.3,46.2,2.2z"/>
</g>
<g>
	<path class="st2" d="M76.9,2.6h8.3c2.2,0,4.1,0.7,5.4,2c1.4,1.3,2.1,3,2.1,5.2c0,1.4-0.3,2.7-1,4c-0.7,1.3-1.7,2.2-3.1,2.8
		c-1.4,0.6-2.5,0.9-3.5,1l-3,0.1V27h-5.2V2.6z M82.1,6.9v6.2h2c0.9,0,1.6-0.3,2.3-0.9c0.6-0.6,0.9-1.4,0.9-2.3c0-1-0.4-1.8-1.1-2.3
		c-0.7-0.5-1.7-0.8-3-0.8L82.1,6.9z"/>
	<path class="st2" d="M96.3,14.7c0-3.6,1.2-6.6,3.6-8.9c2.4-2.3,5.2-3.5,8.5-3.5c3.6,0,6.6,1.2,9,3.5c2.4,2.4,3.6,5.3,3.6,9
		c0,3.6-1.2,6.6-3.5,8.9s-5.3,3.6-8.9,3.6c-3.6,0-6.5-1.2-8.8-3.5C97.4,21.4,96.3,18.4,96.3,14.7z M108.6,7.2c-2,0-3.7,0.7-4.9,2.1
		c-1.3,1.4-1.9,3.3-1.9,5.6c0,2.2,0.6,4,1.9,5.4s2.9,2.1,4.8,2.1c2,0,3.7-0.7,5-2.1c1.3-1.4,1.9-3.3,1.9-5.6c0-2.3-0.6-4.1-1.8-5.5
		C112.2,7.9,110.6,7.2,108.6,7.2z"/>
	<path class="st2" d="M125.3,2.6h5.2v19.2h7.2V27h-12.4L125.3,2.6L125.3,2.6z"/>
	<path class="st2" d="M140.3,14.7c0-3.6,1.2-6.6,3.6-8.9c2.4-2.3,5.2-3.5,8.5-3.5c3.6,0,6.6,1.2,9,3.5c2.4,2.4,3.6,5.3,3.6,9
		c0,3.6-1.2,6.6-3.5,8.9c-2.3,2.4-5.3,3.6-8.9,3.6c-3.6,0-6.5-1.2-8.8-3.5C141.5,21.4,140.3,18.4,140.3,14.7z M152.6,7.2
		c-2,0-3.7,0.7-4.9,2.1c-1.3,1.4-1.9,3.3-1.9,5.6c0,2.2,0.6,4,1.9,5.4c1.3,1.4,2.9,2.1,4.8,2.1c2,0,3.7-0.7,5-2.1
		c1.3-1.4,1.9-3.3,1.9-5.6c0-2.3-0.6-4.1-1.9-5.5C156.3,7.9,154.7,7.2,152.6,7.2z"/>
	<path class="st2" d="M183,4.8l-3.3,3.6c-1.7-1-3-1.5-3.7-1.5c-0.6,0-1.1,0.2-1.5,0.7c-0.4,0.4-0.6,1-0.6,1.6c0,1.2,1.1,2.2,3.3,3.1
		c1.6,0.7,2.8,1.3,3.6,1.9c0.8,0.6,1.5,1.3,2.1,2.3c0.6,1,0.8,2,0.8,3.2c0,2.1-0.8,3.9-2.5,5.5c-1.7,1.5-3.7,2.3-6,2.3
		c-2.5,0-5-1.2-7.5-3.6l3.5-4c1.6,1.6,3,2.4,4.4,2.4c0.6,0,1.2-0.3,1.8-0.8c0.6-0.6,0.9-1.2,0.9-1.8c0-1.3-1.3-2.4-4-3.4
		c-1.5-0.6-2.6-1.1-3.3-1.6c-0.6-0.5-1.2-1.2-1.6-2.1c-0.4-0.9-0.7-1.9-0.7-2.9c0-2.2,0.7-3.9,2.1-5.3c1.4-1.4,3.3-2,5.5-2
		C178.9,2.2,181.2,3.1,183,4.8z"/>
	<path class="st2" d="M186.6,14.7c0-3.6,1.2-6.6,3.6-8.9c2.4-2.3,5.2-3.5,8.5-3.5c3.6,0,6.6,1.2,9,3.5c2.4,2.4,3.6,5.3,3.6,9
		c0,3.6-1.2,6.6-3.5,8.9c-2.3,2.4-5.3,3.6-8.9,3.6c-3.6,0-6.5-1.2-8.8-3.5C187.8,21.4,186.6,18.4,186.6,14.7z M198.9,7.2
		c-2,0-3.7,0.7-4.9,2.1c-1.3,1.4-1.9,3.3-1.9,5.6c0,2.2,0.6,4,1.9,5.4c1.3,1.4,2.9,2.1,4.8,2.1c2,0,3.7-0.7,5-2.1
		c1.3-1.4,1.9-3.3,1.9-5.6c0-2.3-0.6-4.1-1.9-5.5C202.6,7.9,201,7.2,198.9,7.2z"/>
	<path class="st2" d="M215.7,2.6h13.7v4.7h-8.5v5h8.5V17h-8.5V27h-5.3L215.7,2.6L215.7,2.6z"/>
	<path class="st2" d="M232.2,2.6h16.4v5.2H243V27h-5.3V7.7h-5.6L232.2,2.6L232.2,2.6z"/>
</g>
<g>
	<path class="st3" d="M83.4,37.3h10.3v3.3h-3.5v12.1h-3.3V40.6h-3.5V37.3z"/>
	<path class="st3" d="M96,37.3h8.6v3h-5.3v3.1h5.3v3h-5.3v3.2h5.3v3H96V37.3z"/>
	<path class="st3" d="M118.8,38.1v3.7c-1.7-1-3.1-1.5-4.4-1.5c-1.2,0-2.2,0.4-3,1.3s-1.1,2-1.1,3.5c0,1.4,0.4,2.5,1.2,3.3
		c0.8,0.8,1.8,1.2,3.2,1.2c1.2,0,2.5-0.5,4.1-1.4V52c-1.8,0.6-3.3,0.9-4.5,0.9c-2.1,0-3.8-0.8-5.3-2.3c-1.4-1.5-2.2-3.4-2.2-5.5
		c0-2.2,0.7-4.1,2.2-5.6c1.5-1.5,3.3-2.3,5.4-2.3C115.8,37.1,117.3,37.5,118.8,38.1z"/>
	<path class="st3" d="M121.3,37.3h3.3v5.9h5.4v-5.9h3.3v15.3H130v-6.1h-5.4v6.1h-3.3C121.3,52.6,121.3,37.3,121.3,37.3z"/>
	<path class="st3" d="M146.6,37.3h3.2v15.3h-3.2l-7-9.9v9.9h-3.3V37.3h3.3l7,9.9L146.6,37.3L146.6,37.3z"/>
	<path class="st3" d="M152.4,45c0-2.3,0.7-4.1,2.2-5.6s3.3-2.2,5.3-2.2c2.3,0,4.1,0.7,5.6,2.2c1.5,1.5,2.2,3.4,2.2,5.6
		c0,2.3-0.7,4.1-2.2,5.6c-1.5,1.5-3.3,2.2-5.6,2.2c-2.2,0-4.1-0.7-5.5-2.2C153.2,49.1,152.4,47.3,152.4,45z M160.2,40.2
		c-1.3,0-2.3,0.4-3.1,1.3c-0.8,0.9-1.2,2.1-1.2,3.5c0,1.4,0.4,2.5,1.2,3.4c0.8,0.9,1.8,1.3,3,1.3c1.3,0,2.3-0.4,3.1-1.3
		c0.8-0.9,1.2-2,1.2-3.5c0-1.4-0.4-2.6-1.2-3.4C162.5,40.7,161.5,40.2,160.2,40.2z"/>
	<path class="st3" d="M170.7,37.3h3.3v12h4.5v3.3h-7.8V37.3z"/>
	<path class="st3" d="M180.1,45c0-2.3,0.7-4.1,2.2-5.6s3.3-2.2,5.3-2.2c2.3,0,4.1,0.7,5.6,2.2c1.5,1.5,2.2,3.4,2.2,5.6
		c0,2.3-0.7,4.1-2.2,5.6c-1.5,1.5-3.3,2.2-5.6,2.2c-2.2,0-4.1-0.7-5.5-2.2C180.8,49.1,180.1,47.3,180.1,45z M187.8,40.2
		c-1.3,0-2.3,0.4-3.1,1.3c-0.8,0.9-1.2,2.1-1.2,3.5c0,1.4,0.4,2.5,1.2,3.4c0.8,0.9,1.8,1.3,3,1.3c1.3,0,2.3-0.4,3.1-1.3
		c0.8-0.9,1.2-2,1.2-3.5c0-1.4-0.4-2.6-1.2-3.4C190.2,40.7,189.1,40.2,187.8,40.2z"/>
	<path class="st3" d="M211.3,40.6l-2.2,2.1c-0.5-0.8-1-1.4-1.7-1.8c-0.7-0.4-1.4-0.6-2.1-0.6c-1.2,0-2.2,0.5-3.1,1.4
		c-0.9,0.9-1.3,2-1.3,3.2c0,1.3,0.4,2.4,1.3,3.3s1.9,1.4,3.2,1.4c0.7,0,1.3-0.2,2-0.5c0.6-0.3,1.1-1,1.5-1.9h-3.6v-3h7.1v2
		c0,1-0.4,2.1-1.1,3.3c-0.7,1.2-1.6,2-2.8,2.6c-1.1,0.5-2.3,0.8-3.5,0.8c-2.1,0-3.9-0.8-5.4-2.3c-1.5-1.5-2.2-3.4-2.2-5.7
		c0-2.1,0.7-4,2.2-5.5c1.5-1.5,3.3-2.3,5.4-2.3C207.8,37.1,209.9,38.3,211.3,40.6z"/>
	<path class="st3" d="M214.6,37.3h3.3v15.3h-3.3V37.3z"/>
	<path class="st3" d="M221,37.3h8.6v3h-5.3v3.1h5.3v3h-5.3v3.2h5.3v3H221V37.3z"/>
	<path class="st3" d="M241,38.7L239,41c-1.1-0.6-1.9-1-2.3-1c-0.4,0-0.7,0.1-0.9,0.4c-0.3,0.3-0.4,0.6-0.4,1c0,0.8,0.7,1.4,2.1,2
		c1,0.4,1.8,0.8,2.3,1.2c0.5,0.3,0.9,0.8,1.3,1.4c0.3,0.6,0.5,1.3,0.5,2c0,1.3-0.5,2.5-1.6,3.4c-1.1,1-2.3,1.5-3.8,1.5
		c-1.6,0-3.2-0.7-4.7-2.2l2.2-2.5c1,1,1.9,1.5,2.7,1.5c0.4,0,0.8-0.2,1.1-0.5c0.4-0.4,0.6-0.7,0.6-1.1c0-0.8-0.8-1.5-2.5-2.1
		c-1-0.4-1.6-0.7-2.1-1c-0.4-0.3-0.7-0.8-1-1.3c-0.3-0.6-0.4-1.2-0.4-1.8c0-1.4,0.4-2.5,1.3-3.3c0.9-0.8,2-1.3,3.5-1.3
		C238.5,37.1,239.9,37.6,241,38.7z"/>
</g>
</svg>
